<svg width="55" height="55" viewBox="0 0 55 55" fill="none" xmlns="http://www.w3.org/2000/svg">
<path d="M51.1722 0H2.98942C1.33824 0 0 1.33824 0 2.98942V51.173C0 52.8234 1.33824 54.1617 2.98942 54.1617H28.9291V33.1876H21.8708V25.0137H28.9291V18.9852C28.9291 11.9893 33.2018 8.18067 39.4425 8.18067C42.4319 8.18067 45.0008 8.40258 45.75 8.50263V15.8137L41.4216 15.816C38.0275 15.816 37.3708 17.4288 37.3708 19.7953V25.0144H45.465L44.4111 33.1883H37.3708V54.1617H51.173C52.8234 54.1617 54.1617 52.8234 54.1617 51.1722V2.98942C54.1617 1.33824 52.8234 0 51.1722 0Z" fill="#60514B"/>
</svg>
