<svg width="58" height="59" viewBox="0 0 58 59" fill="none" xmlns="http://www.w3.org/2000/svg">
<path d="M42.8916 25.2675C42.8916 33.1518 36.5001 39.5433 28.6159 39.5433C20.7316 39.5433 14.3401 33.1518 14.3401 25.2675C14.3401 23.0459 14.8623 20.9514 15.7669 19.0771H0V52.4614C0 55.5216 2.50382 58.0254 5.56404 58.0254H51.6661C54.7263 58.0254 57.2301 55.5216 57.2301 52.4614V19.0771H41.464C42.3694 20.9514 42.8916 23.0459 42.8916 25.2675Z" fill="#60514B"/>
<path d="M51.6661 0H5.56404C2.50382 0 0 2.50382 0 5.56404V16.6921H17.2207C19.8263 13.2353 23.9532 10.9914 28.6151 10.9914C33.2769 10.9914 37.4039 13.2353 40.0094 16.6921H57.2301V5.56404C57.2301 2.50382 54.7263 0 51.6661 0ZM4.57523 14.0818H2.50382V6.05765C2.50382 4.65392 3.35909 3.4513 4.57603 2.9402L4.57523 14.0818ZM7.9693 14.0818H6.00678V2.6771H7.9693V14.0818ZM11.3626 14.0818H9.40005V2.6771H11.3626V14.0818ZM14.7535 6.05765V10.7012V14.0818H12.7933V2.6771H14.7535V6.05765ZM54.3297 10.7012C54.3297 12.5692 52.8163 14.0818 50.9507 14.0818H45.459C43.5927 14.0818 42.0793 12.5692 42.0793 10.7012V6.05765C42.0793 4.18972 43.5927 2.6771 45.459 2.6771H50.9507C52.8171 2.6771 54.3297 4.18972 54.3297 6.05765V10.7012Z" fill="#60514B"/>
<path d="M28.6158 37.8733C35.5597 37.8733 41.1889 32.2417 41.1889 25.2993C41.1889 18.3562 35.5605 12.7246 28.6158 12.7246C21.6702 12.7246 16.041 18.3562 16.041 25.2993C16.041 32.2409 21.6702 37.8733 28.6158 37.8733ZM28.615 15.2809C34.1472 15.2809 38.6334 19.7663 38.6334 25.2993C38.6334 30.8316 34.148 35.3178 28.615 35.3178C23.0819 35.3178 18.5965 30.8324 18.5965 25.2993C18.5973 19.7655 23.0827 15.2809 28.615 15.2809Z" fill="#60514B"/>
</svg>
