<svg width="56" height="56" viewBox="0 0 56 56" fill="none" xmlns="http://www.w3.org/2000/svg">
<path d="M51.8521 0H4.13389C1.85189 0 0 1.80833 0 4.03511V51.9594C0 54.1893 1.85189 56 4.13389 56H51.8521C54.1357 56 56 54.1893 56 51.9594V4.03511C56 1.80833 54.1357 0 51.8521 0ZM16.6087 47.7198H8.29889V20.9961H16.6087V47.7198ZM12.4538 17.3421C9.79144 17.3421 7.63933 15.1846 7.63933 12.5246C7.63933 9.86845 9.79144 7.71089 12.4538 7.71089C15.1099 7.71089 17.2674 9.86845 17.2674 12.5246C17.2674 15.1846 15.1099 17.3421 12.4538 17.3421ZM47.7167 47.7198H39.4201V34.7247C39.4201 31.6244 39.3594 27.6383 35.1027 27.6383C30.7798 27.6383 30.121 31.0147 30.121 34.4999V47.7206H21.8182V20.9961H29.7866V24.6454H29.9001C31.0092 22.5454 33.719 20.3296 37.7603 20.3296C46.165 20.3296 47.7174 25.8627 47.7174 33.061L47.7167 47.7198Z" fill="#60514B"/>
</svg>
