<svg width="43" height="33" viewBox="0 0 43 33" fill="none" xmlns="http://www.w3.org/2000/svg">
<path d="M2.29212 0.0109085C1.57922 0.124973 0.940825 0.517564 0.517384 1.10232C0.0939426 1.68707 -0.0798637 2.41608 0.0342004 3.12898C0.148265 3.84188 0.540855 4.48027 1.12561 4.90372C1.71036 5.32716 2.43937 5.50096 3.15227 5.3869H11.2163L11.7001 6.7309L13.9043 13.4509L16.1084 20.1709C16.3235 20.8698 17.2374 21.5149 17.9362 21.5149H36.7522C37.5049 21.5149 38.365 20.8698 38.5801 20.1709L42.9346 6.7309C43.1496 6.03202 42.8271 5.3869 42.0744 5.3869H18.205L16.1622 1.51619C15.9446 1.07191 15.6086 0.696297 15.1913 0.430706C14.7739 0.165116 14.2913 0.0198515 13.7967 0.0109085L3.04475 0.0109085C2.8838 -0.00363617 2.72187 -0.00363617 2.56092 0.0109085C2.45349 0.00445151 2.34578 0.00445151 2.23836 0.0109085L2.29212 0.0109085ZM19.2802 26.8909C17.775 26.8909 16.5922 28.0736 16.5922 29.5789C16.5922 31.0841 17.775 32.2668 19.2802 32.2668C20.7855 32.2668 21.9682 31.0841 21.9682 29.5789C21.9682 28.0736 20.7855 26.8909 19.2802 26.8909ZM35.4082 26.8909C33.9029 26.8909 32.7202 28.0736 32.7202 29.5789C32.7202 31.0841 33.9029 32.2668 35.4082 32.2668C36.9135 32.2668 38.0962 31.0841 38.0962 29.5789C38.0962 28.0736 36.9135 26.8909 35.4082 26.8909Z" fill="black"/>
</svg>
