<svg width="60" height="60" viewBox="0 0 60 60" fill="none" xmlns="http://www.w3.org/2000/svg">
<path d="M44.7009 26.018C44.7009 34.1366 38.1194 40.7181 30.0007 40.7181C21.8821 40.7181 15.3006 34.1366 15.3006 26.018C15.3006 23.7303 15.8384 21.5736 16.7698 19.6436H0.53418V54.0203C0.53418 57.1715 3.11243 59.7497 6.26363 59.7497H53.7362C56.8874 59.7497 59.4657 57.1715 59.4657 54.0203V19.6436H43.2309C44.1631 21.5736 44.7009 23.7303 44.7009 26.018Z" fill="#60514B"/>
<path d="M53.7362 0H6.26363C3.11243 0 0.53418 2.57825 0.53418 5.72945V17.1884H18.2668C20.9499 13.6287 25.1995 11.3181 29.9999 11.3181C34.8004 11.3181 39.05 13.6287 41.733 17.1884H59.4657V5.72945C59.4657 2.57825 56.8874 0 53.7362 0ZM5.24543 14.5004H3.11243V6.23774C3.11243 4.79228 3.99313 3.5539 5.24624 3.02761L5.24543 14.5004ZM8.74039 14.5004H6.71953V2.75669H8.74039V14.5004ZM12.2345 14.5004H10.2137V2.75669H12.2345V14.5004ZM15.7262 6.23774V11.0194V14.5004H13.7078V2.75669H15.7262V6.23774ZM56.479 11.0194C56.479 12.9428 54.9206 14.5004 52.9996 14.5004H47.3446C45.4228 14.5004 43.8644 12.9428 43.8644 11.0194V6.23774C43.8644 4.31428 45.4228 2.75669 47.3446 2.75669H52.9996C54.9214 2.75669 56.479 4.31428 56.479 6.23774V11.0194Z" fill="#60514B"/>
<path d="M30.0013 38.9998C37.1517 38.9998 42.9482 33.2008 42.9482 26.0521C42.9482 18.9025 37.1525 13.1035 30.0013 13.1035C22.8493 13.1035 17.0527 18.9025 17.0527 26.0521C17.0527 33.2 22.8493 38.9998 30.0013 38.9998ZM30.0005 15.7358C35.6972 15.7358 40.3168 20.3545 40.3168 26.0521C40.3168 31.7488 35.698 36.3684 30.0005 36.3684C24.3029 36.3684 19.6842 31.7496 19.6842 26.0521C19.685 20.3537 24.3038 15.7358 30.0005 15.7358Z" fill="#60514B"/>
</svg>
