<svg width="60" height="60" viewBox="0 0 60 60" fill="none" xmlns="http://www.w3.org/2000/svg">
<path d="M55.2961 0H4.40846C1.97489 0 0 1.92844 0 4.30312V55.4106C0 57.7886 1.97489 59.7195 4.40846 59.7195H55.2961C57.7313 59.7195 59.7195 57.7886 59.7195 55.4106V4.30312C59.7195 1.92844 57.7313 0 55.2961 0ZM17.7118 50.8893H8.8501V22.3907H17.7118V50.8893ZM13.2809 18.494C10.4418 18.494 8.14673 16.1931 8.14673 13.3564C8.14673 10.5239 10.4418 8.22304 13.2809 8.22304C16.1135 8.22304 18.4143 10.5239 18.4143 13.3564C18.4143 16.1931 16.1135 18.494 13.2809 18.494ZM50.886 50.8893H42.0384V37.0311C42.0384 33.7249 41.9737 29.4741 37.4342 29.4741C32.8242 29.4741 32.1216 33.0746 32.1216 36.7913V50.8901H23.2674V22.3907H31.765V26.2824H31.8861C33.0688 24.0429 35.9586 21.6798 40.2683 21.6798C49.2312 21.6798 50.8868 27.5804 50.8868 35.2569L50.886 50.8893Z" fill="#60514B"/>
</svg>
