<svg width="57" height="57" viewBox="0 0 57 57" fill="none" xmlns="http://www.w3.org/2000/svg">
<path d="M53.8539 0H3.14608C1.40838 0 0 1.40838 0 3.14608V53.8547C0 55.5916 1.40838 57 3.14608 57H30.4451V34.9268H23.0169V26.3245H30.4451V19.9801C30.4451 12.6176 34.9418 8.60938 41.5095 8.60938C44.6555 8.60938 47.3591 8.84292 48.1476 8.94821V16.6424L43.5923 16.6448C40.0203 16.6448 39.3292 18.3421 39.3292 20.8327V26.3253H47.8475L46.7384 34.9275H39.3292V57H53.8547C55.5916 57 57 55.5916 57 53.8539V3.14608C57 1.40838 55.5916 0 53.8539 0Z" fill="#60514B"/>
</svg>
