<svg width="57" height="58" viewBox="0 0 57 58" fill="none" xmlns="http://www.w3.org/2000/svg">
<path d="M28.5007 0C12.7622 0 0 12.7607 0 28.5007C0 40.1711 7.01758 50.1958 17.0598 54.6038C16.9794 52.6139 17.0445 50.2236 17.556 48.0612C18.1041 45.7462 21.223 32.5309 21.223 32.5309C21.223 32.5309 20.3125 30.7113 20.3125 28.0221C20.3125 23.799 22.7605 20.6428 25.8078 20.6428C28.3999 20.6428 29.6524 22.5895 29.6524 24.9214C29.6524 27.5273 27.9914 31.4223 27.1364 35.0353C26.4217 38.0599 28.6527 40.5248 31.635 40.5248C37.0347 40.5248 40.671 33.5898 40.671 25.3716C40.671 19.1272 36.4647 14.4517 28.8128 14.4517C20.167 14.4517 14.7813 20.8985 14.7813 28.0995C14.7813 30.5842 15.5135 32.3343 16.6608 33.6885C17.1877 34.3118 17.2608 34.5625 17.07 35.2786C16.9334 35.8026 16.6192 37.0646 16.4898 37.5652C16.3005 38.2872 15.7159 38.5444 15.0626 38.2784C11.0807 36.6525 9.22596 32.292 9.22596 27.39C9.22596 19.293 16.0535 9.58623 29.5947 9.58623C40.4766 9.58623 47.6381 17.4603 47.6381 25.9145C47.6381 37.0931 41.4222 45.4458 32.2598 45.4458C29.184 45.4458 26.2894 43.7818 25.2978 41.8935C25.2978 41.8935 23.6433 48.4588 23.2933 49.7288C22.6889 51.9263 21.5058 54.123 20.4243 55.8337C22.9878 56.59 25.6953 57.0029 28.5015 57.0029C44.2393 57.0015 57 44.24 57 28.5007C57 12.7607 44.2393 0 28.5007 0Z" fill="#60514B"/>
</svg>
