<svg width="71" height="57" viewBox="0 0 71 57" fill="none" xmlns="http://www.w3.org/2000/svg">
<path d="M70.1414 6.74789C67.5609 7.89197 64.7881 8.66532 61.8769 9.01237C64.8473 7.23158 67.13 4.41145 68.2031 1.05299C65.423 2.70171 62.3424 3.90044 59.0659 4.54353C56.4416 1.74891 52.7015 0 48.5624 0C40.6158 0 34.1721 6.44183 34.1721 14.3903C34.1721 15.517 34.2997 16.6165 34.5456 17.6704C22.5856 17.0701 11.9828 11.3406 4.88512 2.63339C3.6463 4.75941 2.93672 7.23248 2.93672 9.86861C2.93672 14.8612 5.4772 19.2645 9.33847 21.8459C6.98017 21.7703 4.76123 21.1227 2.82103 20.046C2.81921 20.1061 2.81921 20.1653 2.81921 20.2273C2.81921 27.1974 7.77902 33.0135 14.3611 34.337C13.1542 34.664 11.8835 34.8407 10.5709 34.8407C9.64271 34.8407 8.74183 34.7515 7.86282 34.5829C9.69372 40.2988 15.0079 44.4607 21.3049 44.5773C16.3797 48.4358 10.1756 50.7376 3.43315 50.7376C2.27177 50.7376 1.12677 50.6702 0 50.5363C6.36805 54.6189 13.9321 57 22.0582 57C48.5269 57 63.001 35.0739 63.001 16.0599C63.001 15.4369 62.9864 14.8148 62.9591 14.1963C65.7728 12.1686 68.2131 9.6336 70.1414 6.74789Z" fill="#60514B"/>
</svg>
