<svg width="55" height="55" viewBox="0 0 55 55" fill="none" xmlns="http://www.w3.org/2000/svg">
<path d="M27.0417 0C12.1088 0 0 12.1074 0 27.0417C0 38.1146 6.65832 47.6261 16.1865 51.8084C16.1102 49.9204 16.1719 47.6525 16.6572 45.6008C17.1773 43.4042 20.1365 30.8655 20.1365 30.8655C20.1365 30.8655 19.2726 29.1391 19.2726 26.5875C19.2726 22.5806 21.5953 19.586 24.4867 19.586C26.946 19.586 28.1344 21.4331 28.1344 23.6456C28.1344 26.1181 26.5584 29.8137 25.7472 33.2417C25.0691 36.1115 27.1859 38.4502 30.0155 38.4502C35.1387 38.4502 38.5889 31.8702 38.5889 24.0727C38.5889 18.148 34.5979 13.7119 27.3377 13.7119C19.1346 13.7119 14.0246 19.8287 14.0246 26.661C14.0246 29.0184 14.7193 30.679 15.8079 31.9638C16.3078 32.5553 16.3771 32.7931 16.1962 33.4726C16.0665 33.9697 15.7684 35.1671 15.6456 35.6421C15.4661 36.3271 14.9114 36.5712 14.2915 36.3188C10.5134 34.7761 8.75365 30.6388 8.75365 25.9878C8.75365 18.3054 15.2317 9.09548 28.0796 9.09548C38.4044 9.09548 45.1994 16.5664 45.1994 24.5879C45.1994 35.1942 39.3016 43.1193 30.6083 43.1193C27.69 43.1193 24.9436 41.5405 24.0027 39.7489C24.0027 39.7489 22.4329 45.978 22.1008 47.1831C21.5274 49.268 20.4049 51.3522 19.3787 52.9754C21.811 53.693 24.3799 54.0847 27.0424 54.0847C41.9745 54.0834 54.082 41.9752 54.082 27.0417C54.082 12.1074 41.9745 0 27.0417 0Z" fill="#60514B"/>
</svg>
