<svg width="52" height="52" viewBox="0 0 52 52" fill="none" xmlns="http://www.w3.org/2000/svg">
<path d="M22.1222 0.0632062C9.92337 0.0632062 0 9.98657 0 22.1854C0 34.3841 9.92337 44.3075 22.1222 44.3075C25.8513 44.3075 29.5173 43.4226 32.6144 41.7161C32.8625 42.0146 33.1375 42.2897 33.4361 42.5377L39.7567 48.8584C40.3403 49.5151 41.052 50.0456 41.8481 50.4173C42.6441 50.789 43.5078 50.9941 44.386 51.0199C45.2642 51.0458 46.1384 50.8919 46.9549 50.5676C47.7715 50.2434 48.5132 49.7557 49.1344 49.1344C49.7557 48.5132 50.2434 47.7715 50.5676 46.9549C50.8919 46.1384 51.0458 45.2642 51.0199 44.386C50.9941 43.5078 50.789 42.6441 50.4173 41.8481C50.0456 41.052 49.5151 40.3403 48.8584 39.7567L42.5377 33.4361C42.2299 33.1281 41.891 32.8527 41.5264 32.6144C43.233 29.5173 44.3075 25.9145 44.3075 22.1222C44.3075 9.92337 34.3842 0 22.1854 0L22.1222 0.0632062ZM22.1222 6.38382C30.9078 6.38382 37.9237 13.3997 37.9237 22.1854C37.9237 26.357 36.4068 30.2125 33.7521 33.0568C33.6889 33.12 33.6257 33.1832 33.5625 33.2464C33.2639 33.4945 32.9889 33.7696 32.7408 34.0681C29.9597 36.5964 26.1674 38.0501 22.059 38.0501C13.2733 38.0501 6.25741 31.0342 6.25741 22.2486C6.25741 13.4629 13.2733 6.44703 22.059 6.44703L22.1222 6.38382Z" fill="#D3C3B6"/>
</svg>
