<svg width="59" height="48" viewBox="0 0 59 48" fill="none" xmlns="http://www.w3.org/2000/svg">
<path d="M59 5.67604C56.8293 6.63839 54.497 7.2889 52.0482 7.58082C54.5468 6.08289 56.4669 3.71073 57.3695 0.885732C55.0311 2.27256 52.4398 3.28089 49.6837 3.82183C47.4763 1.47111 44.3303 0 40.8486 0C34.1643 0 28.7441 5.41859 28.7441 12.1045C28.7441 13.0523 28.8514 13.9771 29.0583 14.8636C18.998 14.3587 10.0794 9.53924 4.10915 2.2151C3.06712 4.00342 2.47024 6.08366 2.47024 8.30105C2.47024 12.5006 4.60719 16.2044 7.85512 18.3759C5.87142 18.3123 4.00495 17.7675 2.37293 16.8619C2.3714 16.9124 2.3714 16.9622 2.3714 17.0143C2.3714 22.8773 6.54338 27.7695 12.08 28.8828C11.0648 29.1579 9.9959 29.3065 8.8918 29.3065C8.11103 29.3065 7.35326 29.2314 6.61387 29.0897C8.15394 33.8976 12.624 37.3984 17.9207 37.4965C13.7779 40.7421 8.55926 42.6783 2.88782 42.6783C1.91091 42.6783 0.947794 42.6216 0 42.509C5.35653 45.9431 11.7191 47.946 18.5544 47.946C40.8188 47.946 52.9937 29.5027 52.9937 13.5089C52.9937 12.9849 52.9815 12.4615 52.9585 11.9413C55.3253 10.2357 57.3779 8.10337 59 5.67604Z" fill="#60514B"/>
</svg>
