<svg width="55" height="55" viewBox="0 0 55 55" fill="none" xmlns="http://www.w3.org/2000/svg">
<path d="M51.0961 0H2.98498C1.33625 0 0 1.33625 0 2.98498V51.0969C0 52.7448 1.33625 54.0811 2.98498 54.0811H28.8861V33.1382H21.8383V24.9765H28.8861V18.9569C28.8861 11.9715 33.1525 8.1685 39.3838 8.1685C42.3688 8.1685 44.9339 8.39008 45.682 8.48998V15.7902L41.36 15.7924C37.9709 15.7924 37.3152 17.4028 37.3152 19.7659V24.9772H45.3973L44.345 33.1389H37.3152V54.0811H51.0969C52.7448 54.0811 54.0811 52.7448 54.0811 51.0961V2.98498C54.0811 1.33625 52.7448 0 51.0961 0Z" fill="#60514B"/>
</svg>
