<svg width="56" height="57" viewBox="0 0 56 57" fill="none" xmlns="http://www.w3.org/2000/svg">
<path d="M41.4453 24.4152C41.4453 32.0336 35.2693 38.2096 27.6509 38.2096C20.0325 38.2096 13.8566 32.0336 13.8566 24.4152C13.8566 22.2685 14.3612 20.2447 15.2352 18.4336H0V50.6921C0 53.6491 2.41939 56.0685 5.37642 56.0685H49.9239C52.8809 56.0685 55.3003 53.6491 55.3003 50.6921V18.4336H40.0658C40.9406 20.2447 41.4453 22.2685 41.4453 24.4152Z" fill="#60514B"/>
<path d="M49.9239 0H5.37642C2.41939 0 0 2.41939 0 5.37642V16.1292H16.64C19.1577 12.789 23.1455 10.6207 27.6501 10.6207C32.1548 10.6207 36.1426 12.789 38.6603 16.1292H55.3003V5.37642C55.3003 2.41939 52.8809 0 49.9239 0ZM4.42095 13.6069H2.41939V5.85338C2.41939 4.49699 3.24582 3.33491 4.42172 2.84105L4.42095 13.6069ZM7.70056 13.6069H5.80422V2.58682H7.70056V13.6069ZM10.9794 13.6069H9.08307V2.58682H10.9794V13.6069ZM14.256 5.85338V10.3404V13.6069H12.3619V2.58682H14.256V5.85338ZM52.4976 10.3404C52.4976 12.1453 51.0352 13.6069 49.2326 13.6069H43.9261C42.1227 13.6069 40.6603 12.1453 40.6603 10.3404V5.85338C40.6603 4.04844 42.1227 2.58682 43.9261 2.58682H49.2326C51.036 2.58682 52.4976 4.04844 52.4976 5.85338V10.3404Z" fill="#60514B"/>
<path d="M27.6509 36.5965C34.3607 36.5965 39.8001 31.1548 39.8001 24.4466C39.8001 17.7376 34.3615 12.2959 27.6509 12.2959C20.9396 12.2959 15.5002 17.7376 15.5002 24.4466C15.5002 31.1541 20.9396 36.5965 27.6509 36.5965ZM27.6502 14.766C32.9959 14.766 37.3308 19.1001 37.3308 24.4466C37.3308 29.7923 32.9966 34.1272 27.6502 34.1272C22.3037 34.1272 17.9696 29.7931 17.9696 24.4466C17.9703 19.0994 22.3045 14.766 27.6502 14.766Z" fill="#60514B"/>
</svg>
