<svg width="55" height="55" viewBox="0 0 55 55" fill="none" xmlns="http://www.w3.org/2000/svg">
<path d="M50.0753 0H3.99224C1.78843 0 0 1.74637 0 3.89684V50.179C0 52.3325 1.78843 54.0811 3.99224 54.0811H50.0753C52.2807 54.0811 54.0811 52.3325 54.0811 50.179V3.89684C54.0811 1.74637 52.2807 0 50.0753 0ZM16.0396 46.0846H8.01452V20.2767H16.0396V46.0846ZM12.027 16.7479C9.45593 16.7479 7.37756 14.6642 7.37756 12.0954C7.37756 9.53029 9.45593 7.44667 12.027 7.44667C14.5921 7.44667 16.6758 9.53029 16.6758 12.0954C16.6758 14.6642 14.5921 16.7479 12.027 16.7479ZM46.0816 46.0846H38.0693V33.5348C38.0693 30.5408 38.0108 26.6913 33.8998 26.6913C29.7251 26.6913 29.0889 29.9519 29.0889 33.3177V46.0854H21.0706V20.2767H28.7659V23.8009H28.8756C29.9467 21.7729 32.5636 19.6329 36.4664 19.6329C44.5831 19.6329 46.0824 24.9765 46.0824 31.9281L46.0816 46.0846Z" fill="#60514B"/>
</svg>
